<svg id="b142c218-c3ca-487e-979b-dffd11e3a76c" data-name="Layer 1" xmlns="http://www.w3.org/2000/svg" width="532.48525" height="389.35169" viewBox="0 0 532.48525 389.35169"><path d="M657.62709,439.57146a6.51369,6.51369,0,0,1-6.48976-6.0878l-.9666-14.75858a6.51365,6.51365,0,0,1,6.07385-6.92548l115.62688-7.57232a13.90881,13.90881,0,0,1,1.81772,27.75816l-115.62662,7.57183Q657.84421,439.57122,657.62709,439.57146Z" transform="translate(-333.75738 -255.32415)" fill="#6c63ff"/><path d="M680.427,441.47433a6.52191,6.52191,0,0,1-6.50615-6.2708l-.824-22.04369a6.513,6.513,0,0,1,6.26591-6.75177l95.08311-3.55375a6.51385,6.51385,0,0,1,6.75226,6.26591l.824,22.04369a6.513,6.513,0,0,1-6.2659,6.75177l-95.08311,3.55375C680.59089,441.47286,680.50845,441.47433,680.427,441.47433Z" transform="translate(-333.75738 -255.32415)" fill="#2f2e41"/><path d="M791.8491,644.67585H777.05871a6.52087,6.52087,0,0,1-6.51349-6.51349V514.893a6.52087,6.52087,0,0,1,6.51349-6.51348H791.8491a6.52087,6.52087,0,0,1,6.51349,6.51348V638.16236A6.52087,6.52087,0,0,1,791.8491,644.67585Z" transform="translate(-333.75738 -255.32415)" fill="#2f2e41"/><path d="M754.7143,644.67585H739.92391a6.52087,6.52087,0,0,1-6.51349-6.51349V514.893a6.52087,6.52087,0,0,1,6.51349-6.51348H754.7143a6.52087,6.52087,0,0,1,6.51349,6.51348V638.16236A6.52087,6.52087,0,0,1,754.7143,644.67585Z" transform="translate(-333.75738 -255.32415)" fill="#2f2e41"/><circle cx="435.62828" cy="73.30445" r="51.10582" fill="#6c63ff"/><path d="M741.7224,346.07792a12.12059,12.12059,0,0,1-4.42606-2.59809,8.15037,8.15037,0,0,1-2.38243-6.45236,5.48293,5.48293,0,0,1,2.43759-4.21982c1.82759-1.17234,4.27192-1.1758,6.76064-.079l-.09421-19.951,2.004-.00955.11086,23.4545-1.5442-.97135c-1.79064-1.12447-4.34788-1.916-6.15482-.7566a3.521,3.521,0,0,0-1.5247,2.72455,6.15892,6.15892,0,0,0,1.77145,4.81091c2.213,2.11392,5.44168,2.775,9.12357,3.36575l-.31763,1.97862A33.03108,33.03108,0,0,1,741.7224,346.07792Z" transform="translate(-333.75738 -255.32415)" fill="#2f2e41"/><rect x="727.57592" y="308.07255" width="2.0039" height="10.79402" transform="matrix(0.13093, -0.99139, 0.99139, 0.13093, -11.34164, 739.40982)" fill="#2f2e41"/><rect x="761.35331" y="312.53222" width="2.0039" height="10.79402" transform="translate(13.59208 776.77223) rotate(-82.4768)" fill="#2f2e41"/><path d="M725.88081,547.96632h-.00009a8.52716,8.52716,0,0,1-8.51764-8.51764s13.57921-73.67742,21.339-116.86035a36.37333,36.37333,0,0,1,35.79926-29.94363h.00007a46.07539,46.07539,0,0,1,46.07539,46.07539v14.55024A94.696,94.696,0,0,1,725.88081,547.96632Z" transform="translate(-333.75738 -255.32415)" fill="#2f2e41"/><path d="M790.35864,540.59071a6.52391,6.52391,0,0,1-5.98009,3.80507l-14.78976-.12843a6.51295,6.51295,0,0,1-6.45648-6.56975l1.00467-115.87a13.90824,13.90824,0,1,1,27.81543.24117l-1.00412,115.87A6.47722,6.47722,0,0,1,790.35864,540.59071Z" transform="translate(-333.75738 -255.32415)" fill="#6c63ff"/><path d="M796.89226,509.65844a6.52358,6.52358,0,0,1-5.98,3.80485l-25.26174-.21914a6.5209,6.5209,0,0,1-6.45648-6.56976l.82512-95.1459a6.51295,6.51295,0,0,1,6.56963-6.45681l25.2613.21894a6.51295,6.51295,0,0,1,6.45649,6.56975l-.82468,95.14611A6.48519,6.48519,0,0,1,796.89226,509.65844Z" transform="translate(-333.75738 -255.32415)" fill="#2f2e41"/><path d="M754.6343,298.51405c-7.9642,1.35175-16.85609,2.89733-24.44478-.79571-5.97328-2.9069-10.08009-8.71259-8.62518-15.53409,2.89548-13.57569,18.43743-19.57763,30.92767-18.3664a33.17835,33.17835,0,0,1,19.63021,8.85084,1.81749,1.81749,0,0,0,3.06741-1.27056c-.05315-5.00947,3.69455-9.18969,8.13532-11.0767,5.56-2.36261,12.02054-1.51832,17.73484-.254a78.74679,78.74679,0,0,1,60.83363,65.858,77.868,77.868,0,0,1-2.5009,33.35023c-3.03124,9.95948-8.63018,19.96974-17.84813,25.38834-8.30647,4.8828-20.38476,6.14019-28.04987-.71022-6.13981-5.48723-8.90734-15.74534-3.87-22.84427a14.06282,14.06282,0,0,1,13.23124-5.72048,12.59183,12.59183,0,0,1,10.15717,9.0336,12.34855,12.34855,0,0,1-4.28719,12.17557,11.98985,11.98985,0,0,1-17.08764-3.2621c-1.22071-1.95857-4.331-.15647-3.103,1.8138a15.91988,15.91988,0,0,0,13.08837,7.34165,14.71593,14.71593,0,0,0,12.95418-7.25451A15.35938,15.35938,0,0,0,835.032,359.876a16.45392,16.45392,0,0,0-13.71557-8.21305,17.88422,17.88422,0,0,0-14.795,7.63283,19.00308,19.00308,0,0,0-2.76852,13.93458,23.0561,23.0561,0,0,0,6.77554,12.87447,23.81222,23.81222,0,0,0,15.10181,6.14228c12.18476.69494,23.06255-6.32472,29.78312-16.08243,6.97354-10.125,10.092-22.83033,10.72046-34.97715a82.43531,82.43531,0,0,0-27.72525-66.01717,83.76892,83.76892,0,0,0-30.40919-16.9906c-11.10146-3.40065-26.60128-5.87948-34.098,5.46345a13.81219,13.81219,0,0,0-2.30549,7.755l3.06741-1.27056c-10.84666-10.365-27.89773-12.98409-41.44177-6.61282-6.8027,3.20007-12.70035,9.15063-14.81478,16.48759-2.19389,7.61272.97872,15.08455,7.48524,19.402,8.855,5.87575,19.83684,4.24871,29.6976,2.57506,2.27529-.38618,1.31047-3.84989-.95534-3.46532Z" transform="translate(-333.75738 -255.32415)" fill="#2f2e41"/><path d="M642.25738,519.40775h-291a17.52,17.52,0,0,1-17.5-17.5v-174a17.52,17.52,0,0,1,17.5-17.5h291a17.52,17.52,0,0,1,17.5,17.5v174A17.52,17.52,0,0,1,642.25738,519.40775Zm-291-206a14.51669,14.51669,0,0,0-14.5,14.5v174a14.51669,14.51669,0,0,0,14.5,14.5h291a14.51669,14.51669,0,0,0,14.5-14.5v-174a14.5167,14.5167,0,0,0-14.5-14.5Z" transform="translate(-333.75738 -255.32415)" fill="#3f3d56"/><path d="M390.25738,351.40775a12.5,12.5,0,1,1,12.5-12.5A12.51408,12.51408,0,0,1,390.25738,351.40775Zm0-22a9.5,9.5,0,1,0,9.5,9.5A9.5108,9.5108,0,0,0,390.25738,329.40775Z" transform="translate(-333.75738 -255.32415)" fill="#3f3d56"/><path d="M601.25738,351.40775a12.5,12.5,0,1,1,12.5-12.5A12.51408,12.51408,0,0,1,601.25738,351.40775Zm0-22a9.5,9.5,0,1,0,9.5,9.5A9.5108,9.5108,0,0,0,601.25738,329.40775Z" transform="translate(-333.75738 -255.32415)" fill="#3f3d56"/><path d="M419.75738,427.40775h-54a8.51012,8.51012,0,0,1-8.5-8.5v-32a8.51013,8.51013,0,0,1,8.5-8.5h54a8.51014,8.51014,0,0,1,8.5,8.5v32A8.51013,8.51013,0,0,1,419.75738,427.40775Z" transform="translate(-333.75738 -255.32415)" fill="#e6e6e6"/><path d="M523.75738,427.40775h-54a8.51012,8.51012,0,0,1-8.5-8.5v-32a8.51013,8.51013,0,0,1,8.5-8.5h54a8.51014,8.51014,0,0,1,8.5,8.5v32A8.51013,8.51013,0,0,1,523.75738,427.40775Z" transform="translate(-333.75738 -255.32415)" fill="#e6e6e6"/><path d="M573.75738,379.40775a7.5082,7.5082,0,0,0-7.5,7.5v32a7.50819,7.50819,0,0,0,7.5,7.5h54a7.5082,7.5082,0,0,0,7.5-7.5v-32a7.5082,7.5082,0,0,0-7.5-7.5Z" transform="translate(-333.75738 -255.32415)" fill="#e6e6e6"/><path d="M420.25738,491.40775h-54a8.51012,8.51012,0,0,1-8.5-8.5v-32a8.51013,8.51013,0,0,1,8.5-8.5h54a8.51014,8.51014,0,0,1,8.5,8.5v32A8.51013,8.51013,0,0,1,420.25738,491.40775Z" transform="translate(-333.75738 -255.32415)" fill="#e6e6e6"/><path d="M524.25738,491.40775h-54a8.51012,8.51012,0,0,1-8.5-8.5v-32a8.51013,8.51013,0,0,1,8.5-8.5h54a8.51014,8.51014,0,0,1,8.5,8.5v32A8.51013,8.51013,0,0,1,524.25738,491.40775Z" transform="translate(-333.75738 -255.32415)" fill="#e6e6e6"/><path d="M628.25738,491.40775h-54a8.51012,8.51012,0,0,1-8.5-8.5v-32a8.51013,8.51013,0,0,1,8.5-8.5h54a8.51014,8.51014,0,0,1,8.5,8.5v32A8.51013,8.51013,0,0,1,628.25738,491.40775Z" transform="translate(-333.75738 -255.32415)" fill="#e6e6e6"/><path d="M390.25738,342.40775a3.50424,3.50424,0,0,1-3.5-3.5v-50a3.5,3.5,0,0,1,7,0v50A3.50425,3.50425,0,0,1,390.25738,342.40775Z" transform="translate(-333.75738 -255.32415)" fill="#3f3d56"/><path d="M601.25738,342.40775a3.50424,3.50424,0,0,1-3.5-3.5v-50a3.5,3.5,0,0,1,7,0v50A3.50425,3.50425,0,0,1,601.25738,342.40775Z" transform="translate(-333.75738 -255.32415)" fill="#3f3d56"/><path id="b5e0804e-c461-433c-b77b-73087ef71cb0" data-name="Path 395" d="M390.71607,415.879a6.78778,6.78778,0,0,1-4.08354-1.35714l-.073-.05479-15.38069-11.76574a6.83507,6.83507,0,0,1,8.31719-10.84883l9.96238,7.63962L413,368.77943a6.83219,6.83219,0,0,1,9.579-1.26526l.002.00148-.1461.20287.15006-.20287a6.84044,6.84044,0,0,1,1.26378,9.581l-27.69011,36.1087a6.83631,6.83631,0,0,1-5.43658,2.66555Z" transform="translate(-333.75738 -255.32415)" fill="#6c63ff"/><path id="b3a0cc8c-ec19-4bca-9f18-6cf478ced8d1" data-name="Path 395" d="M497.71607,478.879a6.78778,6.78778,0,0,1-4.08354-1.35714l-.073-.05479-15.38069-11.76574a6.83507,6.83507,0,0,1,8.31719-10.84883l9.96238,7.63962L520,431.77943a6.83219,6.83219,0,0,1,9.579-1.26526l.002.00148-.1461.20287.15006-.20287a6.84044,6.84044,0,0,1,1.26378,9.581l-27.69011,36.1087a6.83631,6.83631,0,0,1-5.43658,2.66555Z" transform="translate(-333.75738 -255.32415)" fill="#6c63ff"/><path id="b29a902b-cd84-4f58-97ad-17c408cf2b06" data-name="Path 395" d="M598.71607,415.879a6.78778,6.78778,0,0,1-4.08354-1.35714l-.073-.05479-15.38069-11.76574a6.83507,6.83507,0,0,1,8.31719-10.84883l9.96238,7.63962L621,368.77943a6.83219,6.83219,0,0,1,9.579-1.26526l.002.00148-.1461.20287.15006-.20287a6.84044,6.84044,0,0,1,1.26378,9.581l-27.69011,36.1087a6.83631,6.83631,0,0,1-5.43658,2.66555Z" transform="translate(-333.75738 -255.32415)" fill="#6c63ff"/></svg>